<svg width="59" height="59" viewBox="0 0 59 59" fill="none" xmlns="http://www.w3.org/2000/svg">
<path d="M29.5 0.707275C13.594 0.707275 0.699951 13.6013 0.699951 29.5073C0.699951 45.4133 13.594 58.3073 29.5 58.3073C45.406 58.3073 58.3 45.4133 58.3 29.5073C58.3 13.6013 45.406 0.707275 29.5 0.707275ZM22.45 41.4443H16.618V22.6763H22.45V41.4443ZM19.498 20.3723C17.656 20.3723 16.465 19.0673 16.465 17.4533C16.465 15.8063 17.692 14.5403 19.573 14.5403C21.454 14.5403 22.606 15.8063 22.642 17.4533C22.642 19.0673 21.454 20.3723 19.498 20.3723ZM43.75 41.4443H37.918V31.0433C37.918 28.6223 37.072 26.9783 34.963 26.9783C33.352 26.9783 32.395 28.0913 31.972 29.1623C31.816 29.5433 31.777 30.0833 31.777 30.6203V41.4413H25.942V28.6613C25.942 26.3183 25.867 24.3593 25.789 22.6733H30.856L31.123 25.2803H31.24C32.008 24.0563 33.889 22.2503 37.036 22.2503C40.873 22.2503 43.75 24.8213 43.75 30.3473V41.4443Z" fill="black"/>
</svg>
