<svg width="677" height="678" viewBox="0 0 677 678" fill="none" xmlns="http://www.w3.org/2000/svg">
<path d="M398.41 591.058C491.962 591.058 558.462 593.202 541.625 555.773C541.625 530.202 670.351 539.285 654.863 519.092C649.962 512.702 486.461 520.031 287.962 518.383C53.9106 516.44 85.4619 515.202 104.424 536.99C125.165 560.821 234.153 591.058 398.41 591.058Z" fill="#676F74"/>
<path d="M465.573 280.352H90.076V287.77H465.573V280.352Z" fill="#263238"/>
<path opacity="0.3" d="M465.573 280.352H90.076V287.77H465.573V280.352Z" fill="white"/>
<path opacity="0.2" d="M465.573 280.352H260.827V287.77H465.573V280.352Z" fill="black"/>
<path d="M112.478 287.77H100.727V526.557H112.478V287.77Z" fill="#263238"/>
<path opacity="0.5" d="M112.478 287.77H100.727V526.557H112.478V287.77Z" fill="white"/>
<path opacity="0.2" d="M112.478 287.77H100.727V303.386H112.478V287.77Z" fill="black"/>
<path d="M249.875 287.77H238.123V526.557H249.875V287.77Z" fill="#263238"/>
<path opacity="0.5" d="M249.875 287.77H238.123V526.557H249.875V287.77Z" fill="white"/>
<path opacity="0.2" d="M249.875 287.77H238.123V303.386H249.875V287.77Z" fill="black"/>
<path d="M317.472 287.77H305.721V526.557H317.472V287.77Z" fill="#263238"/>
<path opacity="0.5" d="M317.472 287.77H305.721V526.557H317.472V287.77Z" fill="white"/>
<path opacity="0.2" d="M317.472 287.77H305.721V303.386H317.472V287.77Z" fill="black"/>
<path d="M454.869 287.77H443.118V526.557H454.869V287.77Z" fill="#263238"/>
<path opacity="0.5" d="M454.869 287.77H443.118V526.557H454.869V287.77Z" fill="white"/>
<path opacity="0.2" d="M454.869 287.77H443.118V303.386H454.869V287.77Z" fill="black"/>
<path d="M475.194 272.917H80.4724V280.334H475.194V272.917Z" fill="#407BFF"/>
<path opacity="0.3" d="M475.176 272.917H261.147V280.334H475.176V272.917Z" fill="black"/>
<path d="M139.869 466.914L138.484 466.825C141.271 425.708 135.147 412.345 129.52 408.37C128.647 407.69 127.621 407.236 126.531 407.047C125.441 406.858 124.321 406.941 123.271 407.288L122.721 406.01C123.991 405.573 125.35 405.458 126.676 405.675C128.002 405.892 129.253 406.434 130.318 407.252C136.23 411.423 142.691 425.158 139.869 466.914Z" fill="#407BFF"/>
<path d="M132.058 462.761C130.691 427.767 136.762 414.723 142.088 409.932C142.903 409.079 143.888 408.408 144.98 407.961C146.072 407.515 147.246 407.304 148.425 407.341L148.23 408.708C147.228 408.698 146.236 408.9 145.318 409.3C144.4 409.701 143.578 410.291 142.904 411.032C137.827 415.664 132.058 428.388 133.389 462.708L132.058 462.761Z" fill="#407BFF"/>
<path d="M137.952 462.779L136.567 462.69C138.005 441.661 135.395 429.168 129.076 426.524C120.804 422.975 108.449 436.888 108.324 437.03L107.295 436.107C107.827 435.504 120.413 421.413 129.591 425.247C136.638 428.175 139.443 440.81 137.952 462.779Z" fill="#407BFF"/>
<path d="M134.472 464.11C134.472 451.191 137.135 443.223 142.443 440.437C148.425 437.296 155.33 441.945 155.614 442.211L154.833 443.347C154.833 443.347 148.318 438.964 143.082 441.732C138.271 444.27 135.839 451.83 135.857 464.181L134.472 464.11Z" fill="#407BFF"/>
<g opacity="0.2">
<path opacity="0.2" d="M139.869 466.914L138.484 466.825C141.271 425.708 135.147 412.345 129.52 408.37C128.647 407.69 127.621 407.236 126.531 407.047C125.441 406.858 124.321 406.941 123.271 407.288L122.721 406.01C123.991 405.573 125.35 405.458 126.676 405.675C128.002 405.892 129.253 406.434 130.318 407.252C136.23 411.423 142.691 425.158 139.869 466.914Z" fill="black"/>
<path opacity="0.2" d="M132.058 462.761C130.691 427.767 136.762 414.723 142.088 409.932C142.903 409.079 143.888 408.408 144.98 407.961C146.072 407.515 147.246 407.304 148.425 407.341L148.23 408.708C147.228 408.698 146.236 408.9 145.318 409.3C144.4 409.701 143.578 410.291 142.904 411.032C137.827 415.664 132.058 428.388 133.389 462.708L132.058 462.761Z" fill="black"/>
<path opacity="0.2" d="M137.952 462.779L136.567 462.69C138.005 441.661 135.395 429.168 129.076 426.524C120.804 422.975 108.449 436.888 108.324 437.03L107.295 436.107C107.827 435.504 120.413 421.413 129.591 425.247C136.638 428.175 139.443 440.81 137.952 462.779Z" fill="black"/>
<path opacity="0.2" d="M134.472 464.11C134.472 451.191 137.135 443.223 142.443 440.437C148.425 437.296 155.33 441.945 155.614 442.211L154.833 443.347C154.833 443.347 148.318 438.964 143.082 441.732C138.271 444.27 135.839 451.83 135.857 464.181L134.472 464.11Z" fill="black"/>
</g>
<path d="M103.247 460.401L111.537 527.196H162.235L170.525 460.401H103.247Z" fill="#263238"/>
<path d="M125.792 406.383C125.792 406.383 139.798 382.87 115.141 382.515C90.4841 382.16 71.916 407.891 71.916 407.891C71.916 407.891 105.413 440.064 128.117 432.345C150.821 424.625 125.792 406.383 125.792 406.383Z" fill="#407BFF"/>
<path opacity="0.4" d="M125.792 406.383C125.792 406.383 139.798 382.87 115.141 382.515C90.4841 382.16 71.916 407.891 71.916 407.891C71.916 407.891 105.413 440.064 128.117 432.345C150.821 424.625 125.792 406.383 125.792 406.383Z" fill="white"/>
<path opacity="0.5" d="M120.2 406.205C120.2 406.205 122.241 387.785 118.585 388.459C114.928 389.134 116.543 403.189 116.543 403.189C116.543 403.189 102.342 388.3 99.9101 390.766C97.4781 393.233 112.336 404.59 112.336 404.59C112.336 404.59 79.9929 402.816 79.9574 406.454C79.9219 410.092 112.602 407.749 112.602 407.749C112.602 407.749 99.0758 418.184 100.496 420.952C101.916 423.72 117.537 408.654 117.537 408.654C117.537 408.654 123.555 425.637 127.176 424.75C130.798 423.862 120.2 406.205 120.2 406.205Z" fill="white"/>
<path d="M146.028 408.53C146.028 408.53 129.679 393.801 150.733 389.613C171.786 385.425 192.857 403.242 192.857 403.242C192.857 403.242 170.525 434.563 149.525 431.937C128.525 429.31 146.028 408.53 146.028 408.53Z" fill="#407BFF"/>
<path opacity="0.3" d="M146.028 408.53C146.028 408.53 129.679 393.801 150.733 389.613C171.786 385.425 192.857 403.242 192.857 403.242C192.857 403.242 170.525 434.563 149.525 431.937C128.525 429.31 146.028 408.53 146.028 408.53Z" fill="white"/>
<path opacity="0.5" d="M152.028 407.59C152.028 407.59 144.466 394.688 148.141 395.416C151.815 396.144 155.703 404.626 155.703 404.626C155.703 404.626 164.348 392.506 166.798 394.937C169.247 397.368 159.857 405.975 159.857 405.975C159.857 405.975 185.295 401.379 185.33 405.087C185.366 408.796 159.591 409.133 159.591 409.133C159.591 409.133 171.733 418.202 170.241 420.97C168.75 423.738 154.585 410.056 154.585 410.056C154.585 410.056 148.567 427.039 144.946 426.152C141.324 425.264 152.028 407.59 152.028 407.59Z" fill="white"/>
<path d="M153.076 441.573C153.076 441.573 125.401 448.245 143.259 465.21C161.117 482.175 192.235 475.858 192.235 475.858C192.235 475.858 189.484 429.505 167.561 419.781C145.638 410.056 153.076 441.573 153.076 441.573Z" fill="#407BFF"/>
<path opacity="0.5" d="M158.472 443.88C158.472 443.88 139.638 454.669 142.833 456.603C146.028 458.538 159.2 448.529 159.2 448.529C159.2 448.529 161.561 469.824 165.005 469.629C168.449 469.434 163.23 450.304 163.23 450.304C163.23 450.304 183.644 474.101 186.147 471.368C188.65 468.635 165.111 447.784 165.111 447.784C165.111 447.784 178.94 448.103 179.738 445.104C180.537 442.105 162.076 443.809 162.076 443.809C162.076 443.809 167.863 428.015 164.579 426.24C161.295 424.466 158.472 443.88 158.472 443.88Z" fill="white"/>
<path d="M110.099 434.883C110.099 434.883 95.277 410.376 84.3776 432.469C73.4782 454.563 88.7622 482.388 88.7622 482.388C88.7622 482.388 132.2 465.956 134.916 442.141C137.632 418.326 110.099 434.883 110.099 434.883Z" fill="#407BFF"/>
<path opacity="0.5" d="M106.815 438.432C106.815 438.432 91.9752 425.903 90.9278 429.559C89.8805 433.214 102.502 440.401 102.502 440.401C102.502 440.401 85.2474 447.5 86.277 450.729C87.3065 453.959 101.809 444.714 101.809 444.714C101.809 444.714 87.8213 473.888 91.1586 475.609C94.4959 477.33 104.792 445.92 104.792 445.92C104.792 445.92 113.259 460.596 116.366 460.596C119.472 460.596 107.863 441.945 107.863 441.945C107.863 441.945 125.614 443.329 126.555 439.709C127.496 436.089 106.815 438.432 106.815 438.432Z" fill="white"/>
<path d="M218.807 132.037H210.677C209.048 132.01 207.432 132.33 205.935 132.975C204.439 133.62 203.098 134.576 202 135.78C200.902 136.983 200.072 138.406 199.567 139.955C199.061 141.503 198.891 143.142 199.068 144.761L206.008 224.049C206.367 227.49 207.97 230.682 210.516 233.025C213.062 235.368 216.377 236.701 219.837 236.773H227.967L218.807 132.037Z" fill="#263238"/>
<path d="M296.701 268.219H272.363L276.801 217.501H301.156L296.701 268.219Z" fill="#263238"/>
<path d="M357.819 236.738H225.393C221.933 236.665 218.619 235.333 216.072 232.99C213.526 230.647 211.923 227.455 211.565 224.014L204.624 144.726C204.444 143.106 204.612 141.466 205.117 139.917C205.621 138.367 206.451 136.942 207.549 135.738C208.648 134.534 209.991 133.578 211.488 132.934C212.986 132.29 214.603 131.972 216.233 132.002H348.677C352.137 132.074 355.451 133.407 357.998 135.75C360.544 138.093 362.147 141.285 362.505 144.726L369.446 224.014C369.626 225.635 369.457 227.276 368.952 228.827C368.446 230.378 367.616 231.804 366.515 233.008C365.414 234.213 364.069 235.168 362.57 235.811C361.07 236.455 359.45 236.77 357.819 236.738Z" fill="#407BFF"/>
<path d="M349.121 137.202H216.677C215.704 137.186 214.739 137.377 213.846 137.762C212.953 138.148 212.151 138.718 211.495 139.436C210.839 140.154 210.343 141.003 210.04 141.928C209.736 142.852 209.633 143.83 209.736 144.797L216.677 224.085C216.893 226.141 217.853 228.048 219.376 229.447C220.899 230.845 222.881 231.64 224.949 231.68H357.393C358.367 231.699 359.333 231.509 360.228 231.125C361.122 230.741 361.925 230.17 362.581 229.452C363.238 228.733 363.734 227.883 364.036 226.957C364.339 226.032 364.44 225.053 364.334 224.085L357.393 144.797C357.177 142.74 356.217 140.834 354.694 139.435C353.171 138.036 351.189 137.242 349.121 137.202Z" fill="#263238"/>
<path opacity="0.4" d="M277.6 240.802L275.186 268.219H296.701L299.115 240.802H277.6Z" fill="white"/>
<path d="M329.097 275.299H286.813C285.476 275.299 284.194 274.768 283.248 273.823C282.303 272.878 281.772 271.596 281.772 270.259C281.762 269.591 281.886 268.927 282.135 268.306C282.384 267.686 282.753 267.12 283.222 266.643C283.691 266.167 284.25 265.787 284.866 265.528C285.482 265.268 286.144 265.133 286.813 265.131H329.044C330.383 265.136 331.665 265.671 332.61 266.618C333.555 267.566 334.085 268.85 334.085 270.188C334.095 270.852 333.973 271.51 333.727 272.127C333.481 272.743 333.116 273.304 332.653 273.779C332.189 274.254 331.637 274.633 331.027 274.894C330.416 275.154 329.761 275.292 329.097 275.299Z" fill="#407BFF"/>
<path d="M289.476 275.299H247.245C245.908 275.299 244.626 274.768 243.68 273.823C242.735 272.878 242.204 271.596 242.204 270.259C242.204 268.921 242.734 267.637 243.679 266.689C244.624 265.741 245.906 265.207 247.245 265.202H289.476C290.815 265.207 292.097 265.741 293.042 266.689C293.987 267.637 294.517 268.921 294.517 270.259C294.517 271.596 293.986 272.878 293.041 273.823C292.095 274.768 290.813 275.299 289.476 275.299Z" fill="#407BFF"/>
<g opacity="0.5">
<path opacity="0.5" d="M289.476 275.299H247.245C245.908 275.299 244.626 274.768 243.68 273.823C242.735 272.878 242.204 271.596 242.204 270.259C242.204 268.921 242.734 267.637 243.679 266.689C244.624 265.741 245.906 265.207 247.245 265.202H289.476C290.815 265.207 292.097 265.741 293.042 266.689C293.987 267.637 294.517 268.921 294.517 270.259C294.517 271.596 293.986 272.878 293.041 273.823C292.095 274.768 290.813 275.299 289.476 275.299Z" fill="white"/>
</g>
<path d="M415.671 276.577H384.038C383.035 276.577 382.073 276.179 381.364 275.47C380.655 274.761 380.257 273.8 380.257 272.797C380.257 271.795 380.655 270.833 381.364 270.124C382.073 269.416 383.035 269.017 384.038 269.017H415.671C416.674 269.017 417.635 269.416 418.345 270.124C419.054 270.833 419.452 271.795 419.452 272.797C419.452 273.8 419.054 274.761 418.345 275.47C417.635 276.179 416.674 276.577 415.671 276.577Z" fill="#407BFF"/>
<path opacity="0.3" d="M415.671 276.577H384.038C383.035 276.577 382.073 276.179 381.364 275.47C380.655 274.761 380.257 273.8 380.257 272.797C380.257 271.795 380.655 270.833 381.364 270.124C382.073 269.416 383.035 269.017 384.038 269.017H415.671C416.674 269.017 417.635 269.416 418.345 270.124C419.054 270.833 419.452 271.795 419.452 272.797C419.452 273.8 419.054 274.761 418.345 275.47C417.635 276.179 416.674 276.577 415.671 276.577Z" fill="white"/>
<path d="M385.99 276.577H354.357C353.355 276.577 352.393 276.179 351.684 275.47C350.975 274.761 350.576 273.8 350.576 272.797C350.576 271.795 350.975 270.833 351.684 270.124C352.393 269.416 353.355 269.017 354.357 269.017H385.99C386.993 269.017 387.955 269.416 388.664 270.124C389.373 270.833 389.772 271.795 389.772 272.797C389.772 273.8 389.373 274.761 388.664 275.47C387.955 276.179 386.993 276.577 385.99 276.577Z" fill="#407BFF"/>
<path opacity="0.5" d="M385.99 276.577H354.357C353.355 276.577 352.393 276.179 351.684 275.47C350.975 274.761 350.576 273.8 350.576 272.797C350.576 271.795 350.975 270.833 351.684 270.124C352.393 269.416 353.355 269.017 354.357 269.017H385.99C386.993 269.017 387.955 269.416 388.664 270.124C389.373 270.833 389.772 271.795 389.772 272.797C389.772 273.8 389.373 274.761 388.664 275.47C387.955 276.179 386.993 276.577 385.99 276.577Z" fill="white"/>
<path d="M349.192 276.577C348.889 276.576 348.59 276.512 348.314 276.388C348.037 276.264 347.791 276.082 347.59 275.856C347.389 275.63 347.237 275.364 347.146 275.075C347.055 274.787 347.026 274.482 347.062 274.181C347.789 268.254 351.428 265.308 358.121 265.308C364.813 265.308 371.967 268.059 373.795 273.684C373.902 274.006 373.93 274.348 373.879 274.682C373.828 275.017 373.699 275.335 373.502 275.61C373.304 275.885 373.045 276.11 372.744 276.265C372.443 276.421 372.11 276.503 371.772 276.506L349.192 276.577Z" fill="#263238"/>
<path opacity="0.5" d="M349.192 276.577C348.889 276.576 348.59 276.512 348.314 276.388C348.037 276.264 347.791 276.082 347.59 275.856C347.389 275.63 347.237 275.364 347.146 275.075C347.055 274.787 347.026 274.482 347.062 274.181C347.789 268.254 351.428 265.308 358.121 265.308C364.813 265.308 371.967 268.059 373.795 273.684C373.902 274.006 373.93 274.348 373.879 274.682C373.828 275.017 373.699 275.335 373.502 275.61C373.304 275.885 373.045 276.11 372.744 276.265C372.443 276.421 372.11 276.503 371.772 276.506L349.192 276.577Z" fill="white"/>
<path d="M459.519 258.507L424.957 263.227L410.934 255.739L396.573 261.47L394.655 269.598L406.3 268.835L415.229 272.526L425.028 272.136L462.945 274.389L459.519 258.507Z" fill="#B97964"/>
<path d="M457.744 275.685C460.788 275.902 463.846 275.553 466.762 274.656C474.377 271.213 493.815 241.968 502.744 226.866C506.436 220.62 508.407 208.322 497.312 195.137C497.099 194.87 496.829 194.655 496.522 194.508C496.215 194.36 495.878 194.283 495.537 194.283C495.196 194.283 494.859 194.36 494.552 194.508C494.245 194.655 493.975 194.87 493.762 195.137C488.934 200.762 481.478 211.995 458.827 253.183L453.91 254.23L457.744 275.685Z" fill="#407BFF"/>
<path d="M450.857 254.124L457.141 252.615C457.511 260.929 459.482 269.094 462.945 276.661H454.371C451.172 269.608 449.957 261.816 450.857 254.124Z" fill="#407BFF"/>
<path opacity="0.4" d="M450.857 254.124L457.141 252.615C457.511 260.929 459.482 269.094 462.945 276.661H454.371C451.172 269.608 449.957 261.816 450.857 254.124Z" fill="white"/>
<path d="M446.17 152.494L441.005 160.621C441.957 161.224 443.038 161.596 444.16 161.707C445.282 161.818 446.414 161.665 447.466 161.26L446.17 152.494Z" fill="#A24E3F"/>
<path d="M443.064 150.098C443.064 151.145 443.579 151.997 444.271 152.014C444.963 152.032 445.567 151.127 445.549 150.116C445.531 149.104 445.034 148.217 444.342 148.217C443.65 148.217 443.082 149.051 443.064 150.098Z" fill="#1A2E35"/>
<path d="M448.105 146.62C448.013 146.629 447.92 146.616 447.833 146.582C447.747 146.548 447.67 146.494 447.608 146.425C447.186 145.894 446.644 145.472 446.027 145.191C445.41 144.91 444.735 144.78 444.058 144.81C443.917 144.825 443.776 144.786 443.664 144.7C443.551 144.614 443.476 144.488 443.454 144.348C443.444 144.276 443.449 144.202 443.468 144.132C443.486 144.061 443.519 143.995 443.564 143.937C443.608 143.88 443.664 143.831 443.727 143.795C443.791 143.759 443.861 143.736 443.934 143.727C444.798 143.662 445.666 143.809 446.461 144.155C447.256 144.502 447.955 145.037 448.496 145.715C448.596 145.82 448.651 145.96 448.651 146.105C448.651 146.25 448.596 146.39 448.496 146.496C448.385 146.583 448.246 146.627 448.105 146.62Z" fill="#1A2E35"/>
<path d="M483.502 144.827C483.963 158.758 484.46 164.649 478.176 172.422C468.164 180.656 451.425 181.632 446.809 168.11C442.655 155.954 442.602 135.262 455.685 128.395C458.556 126.89 461.763 126.142 465.003 126.223C468.244 126.303 471.41 127.209 474.202 128.855C476.994 130.5 479.321 132.83 480.96 135.626C482.6 138.421 483.499 141.588 483.573 144.827H483.502Z" fill="#B97964"/>
<path opacity="0.2" d="M463.939 178.349L463.833 177.657C463.78 177.302 463.653 176.963 463.46 176.661C463.266 176.359 463.011 176.101 462.711 175.905C462.411 175.709 462.072 175.579 461.718 175.523C461.364 175.467 461.002 175.487 460.655 175.581L454.975 177.125C457.815 178.27 460.896 178.691 463.939 178.349Z" fill="black"/>
<path d="M463.407 174.818L466.46 195.509L483.75 191.925L478.212 170.754L463.407 174.818Z" fill="#B97964"/>
<path d="M461.561 157.107L453.218 152.334C453.86 148.729 454.298 145.092 454.531 141.438C454.531 139.663 454.531 135.493 453.218 134.162C450.59 131.411 444.2 132.121 445.549 121.048C446.898 109.975 453.697 121.048 453.697 121.048C453.697 121.048 455.809 114.997 459.519 116.115C461.987 117.014 464.119 118.649 465.626 120.8C465.626 120.8 496.513 123.905 488.294 141.065C488.294 141.065 497.046 150.737 479.099 174.197C479.099 174.197 477.555 169.955 469.922 174.197L461.561 157.107Z" fill="#263238"/>
<path d="M486.04 143.709C486.04 143.709 498.644 136.877 496.886 132.263C495.129 127.649 486.04 143.709 486.04 143.709Z" fill="#263238"/>
<path d="M454.726 152.937C454.476 154.325 454.504 155.749 454.809 157.126C455.114 158.503 455.689 159.805 456.502 160.958C458.685 164.028 462.182 162.733 463.602 159.379C464.88 156.398 465.235 151.234 462.058 149.317C461.361 148.894 460.568 148.654 459.754 148.619C458.939 148.584 458.129 148.755 457.398 149.116C456.667 149.476 456.039 150.016 455.572 150.684C455.105 151.352 454.814 152.127 454.726 152.937Z" fill="#B97964"/>
<path d="M451.993 131.145C451.993 131.145 446.277 138.865 440.543 131.145C434.809 123.426 447.839 134.18 451.993 131.145Z" fill="#263238"/>
<path d="M489.36 192.191L486.147 182.377C485.947 181.831 485.608 181.347 485.162 180.973C484.717 180.6 484.181 180.349 483.608 180.248C479.916 179.343 471.661 178.101 457.833 181.827C454.655 182.679 451.442 185.376 452.419 186.53L456.839 192.191H489.36Z" fill="#407BFF"/>
<path opacity="0.1" d="M487.318 185.98C475.371 183.212 462.466 185.377 453.253 187.63L456.803 192.191H489.342L487.318 185.98Z" fill="black"/>
<path d="M442.318 471.226L449.241 504.783L462.91 502.76L459.626 470.09L442.318 471.226Z" fill="#B97964"/>
<path opacity="0.2" d="M461.792 491.616L459.626 470.09L442.318 471.226L446.65 492.202L461.792 491.616Z" fill="black"/>
<path d="M443.081 506.895C441.623 507.242 440.087 507.039 438.768 506.327C438.597 506.126 438.491 505.876 438.466 505.613C438.44 505.35 438.496 505.085 438.626 504.854C438.814 504.434 439.157 504.103 439.584 503.931C441.892 502.991 447.2 505.245 447.431 505.333C447.494 505.364 447.548 505.411 447.586 505.471C447.624 505.531 447.644 505.6 447.644 505.671C447.639 505.74 447.612 505.807 447.568 505.861C447.523 505.915 447.463 505.954 447.395 505.972C445.989 506.414 444.545 506.723 443.081 506.895ZM440.49 504.411C440.27 504.43 440.054 504.484 439.851 504.57C439.715 504.61 439.589 504.68 439.485 504.775C439.38 504.87 439.299 504.989 439.247 505.12C439.052 505.564 439.158 505.759 439.247 505.866C440.01 506.718 443.596 506.309 446.224 505.653C444.41 504.875 442.463 504.453 440.49 504.411Z" fill="#407BFF"/>
<path d="M447.342 505.972H447.2C445.425 505.422 441.608 502.743 441.732 501.092C441.732 500.702 441.945 500.205 442.868 500.01C443.2 499.931 443.544 499.92 443.879 499.978C444.215 500.036 444.535 500.162 444.821 500.347C446.809 501.625 447.644 505.422 447.697 505.671C447.702 505.73 447.693 505.789 447.672 505.845C447.65 505.9 447.616 505.95 447.573 505.99C447.496 506.012 447.414 506.005 447.342 505.972ZM443.17 500.649H442.975C442.371 500.773 442.371 501.021 442.354 501.11C442.354 502.086 444.91 504.233 446.809 505.067C446.443 503.472 445.594 502.028 444.377 500.932C444.022 500.696 443.594 500.595 443.17 500.649Z" fill="#407BFF"/>
<path d="M448.62 503.807L464.152 502.033C464.439 501.996 464.729 502.059 464.975 502.211C465.22 502.363 465.406 502.594 465.502 502.867L469.815 515.164C469.913 515.423 469.959 515.698 469.948 515.974C469.937 516.25 469.871 516.522 469.754 516.772C469.636 517.022 469.469 517.245 469.263 517.43C469.057 517.614 468.816 517.755 468.555 517.844C468.418 517.896 468.275 517.932 468.129 517.951C462.519 518.536 457.478 518.82 450.519 519.725C442.283 520.701 444.502 521.5 434.827 522.742C429.005 523.523 427.141 517.028 429.502 516.389C440.65 513.621 441.413 510.054 445.3 505.493C446.15 504.527 447.338 503.923 448.62 503.807Z" fill="#263238"/>
<path d="M474.697 316.429C474.697 316.429 425.525 323.953 416.437 343.19C409.975 356.854 442.727 481.146 442.727 481.146L462.448 480.312C460.425 370.181 451.318 359.427 451.318 359.427C451.318 359.427 485.046 354.938 508.726 354.938C532.407 354.938 526.478 326.899 525.555 316.429C525.36 314.14 525.555 307.255 525.555 307.255H474.289L474.697 316.429Z" fill="#263238"/>
<g opacity="0.1">
<path opacity="0.1" d="M474.697 316.429C474.697 316.429 425.525 323.953 416.437 343.19C409.975 356.854 442.727 481.146 442.727 481.146L462.448 480.312C460.425 370.181 451.318 359.427 451.318 359.427C451.318 359.427 485.046 354.938 508.726 354.938C532.407 354.938 526.478 326.899 525.555 316.429C525.36 314.14 525.555 307.255 525.555 307.255H474.289L474.697 316.429Z" fill="black"/>
</g>
<path d="M440.49 476.319L463.265 475.645L464.419 486.771L441.928 487.729L440.49 476.319Z" fill="#263238"/>
<path opacity="0.3" d="M440.49 476.319L463.265 475.645L464.419 486.771L441.928 487.729L440.49 476.319Z" fill="white"/>
<path d="M392.259 477.472L403.318 510.16L416.259 508.439L409.673 473.799L392.259 477.472Z" fill="#B97964"/>
<path opacity="0.2" d="M414.076 496.904L409.673 473.799L392.259 477.472L399.448 498.732L414.076 496.904Z" fill="black"/>
<path d="M456.715 307.787C456.812 308.998 456.469 310.204 455.749 311.182C455.028 312.16 453.978 312.845 452.792 313.111C434.561 317.192 363.679 338.257 354.519 354.76C347.064 368.229 392.525 486.558 392.525 486.558L413.827 483.151C401.987 378.611 391.176 371.743 391.176 371.743C391.176 371.743 469.283 351.992 493.549 353.554C517.815 355.115 513.076 315.507 513.076 315.507V307.113H456.661L456.715 307.787Z" fill="#263238"/>
<path d="M389.65 482.796L414.857 479.087L416.774 489.54L392.579 493.479L389.65 482.796Z" fill="#263238"/>
<path opacity="0.3" d="M389.65 482.796L414.857 479.087L416.774 489.54L392.579 493.479L389.65 482.796Z" fill="white"/>
<path d="M395.33 511.19C393.823 511.446 392.274 511.137 390.981 510.32C390.826 510.099 390.743 509.836 390.743 509.566C390.743 509.296 390.826 509.033 390.981 508.812C391.09 508.605 391.238 508.422 391.418 508.273C391.598 508.123 391.805 508.011 392.028 507.942C394.425 507.144 399.679 509.717 399.91 509.876C399.973 509.91 400.025 509.962 400.06 510.025C400.095 510.088 400.11 510.16 400.105 510.231C400.092 510.301 400.061 510.366 400.014 510.419C399.967 510.472 399.907 510.512 399.839 510.533C398.359 510.889 396.85 511.109 395.33 511.19ZM392.863 508.474C392.639 508.488 392.419 508.53 392.206 508.599C392.064 508.634 391.931 508.7 391.818 508.792C391.704 508.884 391.613 509 391.549 509.131C391.318 509.575 391.425 509.77 391.549 509.894C392.277 510.799 395.951 510.622 398.65 510.125C396.846 509.19 394.883 508.601 392.863 508.386V508.474Z" fill="#407BFF"/>
<path d="M399.732 510.444H399.573C397.797 509.752 394.105 506.789 394.247 505.12C394.247 504.712 394.531 504.215 395.472 504.073C395.813 504.013 396.163 504.024 396.499 504.107C396.835 504.189 397.151 504.341 397.425 504.553C399.377 505.972 399.981 509.876 400.016 510.072C400.026 510.133 400.018 510.196 399.993 510.252C399.968 510.309 399.927 510.357 399.874 510.391C399.833 510.422 399.784 510.441 399.732 510.444ZM395.827 504.73H395.614C394.993 504.819 394.975 505.067 394.939 505.156C394.939 506.15 397.354 508.492 399.218 509.468C398.954 507.824 398.192 506.3 397.034 505.103C396.686 504.831 396.25 504.698 395.809 504.73H395.827Z" fill="#407BFF"/>
<path d="M401.153 508.315L417.129 507.445C417.42 507.429 417.708 507.511 417.946 507.679C418.184 507.846 418.359 508.089 418.442 508.368L421.993 521.18C422.071 521.45 422.096 521.732 422.066 522.01C422.035 522.289 421.95 522.559 421.814 522.805C421.679 523.05 421.497 523.267 421.278 523.442C421.058 523.617 420.807 523.747 420.537 523.824C420.39 523.841 420.241 523.841 420.093 523.824C414.342 524.037 409.212 524.02 402.058 524.41C393.626 524.889 395.827 525.776 385.904 526.469C379.94 526.877 378.466 520.133 380.987 519.672C392.508 517.56 393.519 513.993 397.762 509.592C398.697 508.765 399.904 508.311 401.153 508.315Z" fill="#263238"/>
<path d="M435.005 195.438C435 194.772 435.129 194.11 435.384 193.494C435.639 192.878 436.015 192.319 436.49 191.851C436.965 191.383 437.529 191.015 438.149 190.768C438.769 190.522 439.432 190.402 440.099 190.416C440.099 190.416 470.863 187.577 484.922 190.203C495.342 192.155 505.141 196.201 510.324 205.358C520.389 223.104 526.442 239.714 526.3 308.284L456.732 308.107C456.732 308.107 455.206 295.684 450.874 273.715C445.993 249.297 435.235 218.987 435.005 195.438Z" fill="#407BFF"/>
<path opacity="0.2" d="M437.792 210.38C439.141 220.229 441.342 230.682 443.632 241.01C457.283 215.119 447.306 202.643 447.306 202.643L437.792 210.38Z" fill="black"/>
<path d="M403.389 249.244L369.573 256.999L355.549 249.9L342.608 255.064C342.158 255.223 341.758 255.496 341.446 255.857C341.135 256.218 340.924 256.655 340.833 257.123L340.034 261.382C339.945 261.852 339.979 262.337 340.133 262.79C340.287 263.244 340.556 263.649 340.914 263.967C341.271 264.286 341.705 264.506 342.173 264.606C342.642 264.707 343.128 264.684 343.584 264.541L348.75 262.979L359.792 266.688L369.59 266.28L407.49 268.551L403.389 249.244Z" fill="#B97964"/>
<path d="M402.395 269.03C405.438 269.249 408.495 268.906 411.413 268.019C419.028 264.47 438.466 235.331 447.395 220.211C450.626 214.764 452.525 204.666 445.62 193.398C445.044 192.522 444.263 191.799 443.345 191.292C442.427 190.786 441.399 190.51 440.351 190.489C439.302 190.468 438.264 190.702 437.327 191.172C436.389 191.642 435.58 192.332 434.969 193.185C429.821 200.389 421.407 214.284 403.691 246.511L398.774 247.558L402.395 269.03Z" fill="#407BFF"/>
<path d="M395.472 247.487L401.756 245.979C402.125 254.291 404.09 262.454 407.543 270.024H398.987C395.776 262.974 394.56 255.179 395.472 247.487Z" fill="#407BFF"/>
<path opacity="0.3" d="M395.472 247.487L401.756 245.979C402.125 254.291 404.09 262.454 407.543 270.024H398.987C395.776 262.974 394.56 255.179 395.472 247.487Z" fill="white"/>
<path d="M546.253 527.48L492.803 507.818L438.768 527.498C438.336 527.658 437.871 527.712 437.414 527.654C436.956 527.596 436.52 527.428 436.141 527.164C435.763 526.901 435.454 526.55 435.24 526.142C435.027 525.733 434.916 525.279 434.916 524.818C434.917 524.272 435.075 523.738 435.371 523.279C435.667 522.82 436.088 522.455 436.584 522.227L492.803 496.141L548.454 522.227C548.948 522.452 549.366 522.815 549.658 523.271C549.951 523.727 550.106 524.259 550.105 524.801C550.105 525.262 549.994 525.716 549.78 526.124C549.567 526.533 549.258 526.883 548.88 527.147C548.501 527.41 548.065 527.578 547.607 527.636C547.15 527.694 546.685 527.641 546.253 527.48Z" fill="#263238"/>
<path opacity="0.5" d="M546.253 527.48L492.803 507.818L438.768 527.498C438.336 527.658 437.871 527.712 437.414 527.654C436.956 527.596 436.52 527.428 436.141 527.164C435.763 526.901 435.454 526.55 435.24 526.142C435.027 525.733 434.916 525.279 434.916 524.818C434.917 524.272 435.075 523.738 435.371 523.279C435.667 522.82 436.088 522.455 436.584 522.227L492.803 496.141L548.454 522.227C548.948 522.452 549.366 522.815 549.658 523.271C549.951 523.727 550.106 524.259 550.105 524.801C550.105 525.262 549.994 525.716 549.78 526.124C549.567 526.533 549.258 526.883 548.88 527.147C548.501 527.41 548.065 527.578 547.607 527.636C547.15 527.694 546.685 527.641 546.253 527.48Z" fill="white"/>
<path opacity="0.2" d="M480.2 512.396L492.803 507.818L504.821 512.237V501.784L492.803 496.141L480.2 501.997V512.396Z" fill="black"/>
<path d="M492.519 527.941C491.337 527.943 490.196 527.503 489.32 526.709C488.443 525.915 487.894 524.824 487.78 523.647L486.271 507.8V376.321H498.697V507.782L497.188 523.629C497.079 524.797 496.542 525.883 495.68 526.679C494.818 527.475 493.692 527.925 492.519 527.941Z" fill="#263238"/>
<path opacity="0.5" d="M492.519 527.941C491.337 527.943 490.196 527.503 489.32 526.709C488.443 525.915 487.894 524.824 487.78 523.647L486.271 507.8V376.321H498.697V507.782L497.188 523.629C497.079 524.797 496.542 525.883 495.68 526.679C494.818 527.475 493.692 527.925 492.519 527.941Z" fill="white"/>
<path opacity="0.2" d="M498.732 376.339H486.271V391.654H498.732V376.339Z" fill="black"/>
<path d="M579.235 360.119C565.124 356.536 550.654 354.548 536.099 354.192C521.117 353.802 465.093 354.192 451.726 354.192C435.498 354.179 419.331 356.194 403.602 360.19C393.715 362.71 396.75 376.978 405.679 377.138C406.478 377.138 575.969 377.138 576.59 377.138C585.928 377.493 589.336 362.693 579.235 360.119Z" fill="#407BFF"/>
<path opacity="0.5" d="M579.235 360.119C565.124 356.536 550.654 354.548 536.099 354.192C521.117 353.802 465.093 354.192 451.726 354.192C435.498 354.179 419.331 356.194 403.602 360.19C393.715 362.71 396.75 376.978 405.679 377.138C406.478 377.138 575.969 377.138 576.59 377.138C585.928 377.493 589.336 362.693 579.235 360.119Z" fill="black"/>
<path d="M408.182 376.765C436.764 369.507 466.707 369.507 495.289 376.765C506.046 379.516 510.644 362.87 499.868 360.12C468.281 352.099 435.189 352.099 403.602 360.12C392.845 362.87 397.389 379.516 408.182 376.765Z" fill="#407BFF"/>
<g opacity="0.2">
<path opacity="0.2" d="M408.182 376.765C436.764 369.507 466.707 369.507 495.289 376.765C506.046 379.516 510.644 362.87 499.868 360.12C468.281 352.099 435.189 352.099 403.602 360.12C392.845 362.87 397.389 379.516 408.182 376.765Z" fill="black"/>
</g>
<path d="M558.928 238.064C537.004 238.064 517.07 255.81 514.371 277.743L503.898 361.912C503.74 363.201 503.857 364.509 504.242 365.75C504.627 366.99 505.272 368.135 506.133 369.108C506.994 370.081 508.051 370.86 509.236 371.394C510.421 371.928 511.705 372.204 513.005 372.204H583.78C586.838 372.225 589.796 371.118 592.089 369.095C594.382 367.071 595.847 364.274 596.206 361.237L606.448 277.743C609.146 255.827 593.561 238.064 571.655 238.064H558.928Z" fill="#407BFF"/>
<path opacity="0.2" d="M558.928 238.064C537.004 238.064 517.07 255.81 514.371 277.743L503.898 361.912C503.74 363.201 503.857 364.509 504.242 365.75C504.627 366.99 505.272 368.135 506.133 369.108C506.994 370.081 508.051 370.86 509.236 371.394C510.421 371.928 511.705 372.204 513.005 372.204H583.78C586.838 372.225 589.796 371.118 592.089 369.095C594.382 367.071 595.847 364.274 596.206 361.237L606.448 277.743C609.146 255.827 593.561 238.064 571.655 238.064H558.928Z" fill="black"/>
<path d="M583.78 372.204H525.803C524.503 372.204 523.218 371.927 522.033 371.394C520.847 370.86 519.789 370.081 518.927 369.109C518.064 368.136 517.418 366.992 517.031 365.751C516.643 364.511 516.524 363.202 516.679 361.912L526.975 277.743C529.655 255.827 549.608 238.064 571.513 238.064C593.436 238.064 609.022 255.81 606.324 277.743L596.206 361.237C595.848 364.274 594.382 367.071 592.089 369.095C589.796 371.118 586.838 372.225 583.78 372.204Z" fill="#503FBF"/>
<path opacity="0.4" d="M583.78 372.204H525.803C524.503 372.204 523.218 371.927 522.033 371.394C520.847 370.86 519.789 370.081 518.927 369.109C518.064 368.136 517.418 366.992 517.031 365.751C516.643 364.511 516.524 363.202 516.679 361.912L526.975 277.743C529.655 255.827 549.608 238.064 571.513 238.064C593.436 238.064 609.022 255.81 606.324 277.743L596.206 361.237C595.848 364.274 594.382 367.071 592.089 369.095C589.796 371.118 586.838 372.225 583.78 372.204Z" fill="black"/>
<path d="M628.69 448H562L574 519.63C574.249 521.124 574.916 522.517 575.926 523.646C576.935 524.775 578.243 525.595 579.7 526.01L579.93 526.07C580.13 526.12 580.32 526.19 580.53 526.23C580.975 526.316 581.427 526.366 581.88 526.38V526.45L582.21 526.4H611.95C612.496 526.414 613.041 526.377 613.58 526.29C615.318 526.027 616.921 525.199 618.141 523.933C619.361 522.668 620.13 521.036 620.33 519.29L626.12 469.93L626.38 467.93L628.67 448.39L628.69 448ZM616.11 493.69H609.26L609.95 472.91H617.88L616.11 493.69ZM618.58 472.91H625.13L622.66 493.69H616.77L618.58 472.91ZM599 516.74L598.58 498.68H608.44L607.84 516.74H599ZM588.34 498.68H597.92L598.33 516.74H589.75L588.34 498.68ZM589.08 516.74H581.08C580.32 511.86 579.33 505.53 578.25 498.68H587.68L589.08 516.74ZM587.95 493.69L586.34 472.91H597.34L597.82 493.69H587.95ZM598.47 493.69L597.99 472.91H609.29L608.58 493.69H598.47ZM597.87 467.92L597.43 448.67H610.1L609.46 467.92H597.87ZM597.21 467.92H585.95L584.46 448.67H596.77L597.21 467.92ZM585.29 467.92H573.38C572.96 465.26 572.56 462.74 572.19 460.48C570.95 452.7 570.48 449.77 570.19 448.67H583.79L585.29 467.92ZM585.68 472.92L587.29 493.7H577.44C577.11 491.59 576.77 489.46 576.44 487.33C575.67 482.42 574.89 477.51 574.17 472.92H585.68ZM576.77 493.69H570.34L566.85 472.91H573.5C574.51 479.29 575.64 486.48 576.77 493.69ZM577.55 498.69C578.55 504.94 579.55 511.1 580.38 516.75H574.2L571.2 498.69H577.55ZM608.55 516.75L609.15 498.69H615.68L614.14 516.75H608.55ZM610.17 467.93L610.81 448.68H620L618.36 467.93H610.17ZM569.58 448.67C569.85 450.06 571.07 457.67 572.7 467.92H566L562.78 448.67H569.58ZM619.95 516.74H614.8L616.35 498.68H622.08L619.95 516.74ZM625.67 467.92H618.97L620.58 448.67H627.9L625.67 467.92Z" fill="#A6C0CC" fill-opacity="0.83"/>
<path d="M230 137H333.829L344.082 232H240L230 137Z" fill="#D9D9D9"/>
<path d="M290.96 190.206H282.544C281.348 190.185 280.2 189.726 279.319 188.916C278.438 188.107 277.883 187.003 277.76 185.813L277.024 177.394C276.962 176.834 277.021 176.268 277.196 175.733C277.371 175.197 277.658 174.705 278.038 174.29C278.418 173.874 278.882 173.544 279.4 173.322C279.917 173.099 280.476 172.99 281.04 173.001H289.456C290.652 173.022 291.8 173.481 292.681 174.291C293.562 175.1 294.117 176.204 294.24 177.394L294.976 185.813C295.038 186.373 294.979 186.939 294.804 187.474C294.629 188.01 294.342 188.502 293.962 188.917C293.582 189.333 293.118 189.663 292.6 189.885C292.083 190.107 291.524 190.217 290.96 190.206Z" fill="#263238"/>
<path d="M285.368 186.708C286.293 186.64 286.989 185.834 286.921 184.909L286.798 183.233L285.122 183.356C284.197 183.424 283.501 184.23 283.569 185.155C283.637 186.08 284.443 186.776 285.368 186.708Z" fill="#0ACF83"/>
<path d="M283.322 181.802C283.254 180.877 283.95 180.071 284.876 180.003L286.552 179.88L286.798 183.232L285.122 183.356C284.196 183.423 283.39 182.728 283.322 181.802Z" fill="#A259FF"/>
<path d="M283.076 178.45C283.008 177.525 283.704 176.719 284.629 176.651L286.306 176.528L286.552 179.88L284.876 180.003C283.95 180.071 283.144 179.375 283.076 178.45Z" fill="#F24E1E"/>
<path d="M286.306 176.528L287.982 176.405C288.907 176.337 289.713 177.033 289.781 177.958C289.849 178.883 289.153 179.689 288.228 179.757L286.552 179.88L286.306 176.528Z" fill="#FF7262"/>
<path d="M290.027 181.31C290.095 182.235 289.399 183.041 288.474 183.109C287.549 183.177 286.743 182.482 286.675 181.556C286.607 180.631 287.303 179.825 288.228 179.757C289.153 179.689 289.959 180.385 290.027 181.31Z" fill="#1ABCFE"/>
<rect x="273" y="196.244" width="28" height="1" rx="0.5" transform="rotate(-0.5 273 196.244)" fill="#141010"/>
</svg>
